<?xml version="1.0" encoding="utf-8"?>
<!-- Generator: Adobe Illustrator 24.1.2, SVG Export Plug-In . SVG Version: 6.00 Build 0)  -->
<svg version="1.1" id="Layer_1" xmlns="http://www.w3.org/2000/svg" xmlns:xlink="http://www.w3.org/1999/xlink" x="0px" y="0px"
	 viewBox="0 0 1366 768" style="enable-background:new 0 0 1366 768;" xml:space="preserve">
<style type="text/css">
	.st0{fill:none;}
	.st1{fill:#FFFFFF;}
	.st2{fill:#3E3388;}
	.st3{opacity:0.5;fill:#3E3388;enable-background:new    ;}
	.st4{fill:#3E3388;stroke:#3E3388;stroke-miterlimit:10;}
</style>
<rect x="513" y="524" class="st0" width="22" height="18"/>
<rect x="596" y="553" class="st0" width="43" height="37"/>
<g>
	<g>
		<path class="st1" d="M405.84,494.88c0.03-4.49,0.06-8.99,0.09-13.49c0.01-2.34-4.36-2.34-4.38,0c-0.03,4.49-0.06,8.99-0.09,13.49
			C401.45,497.22,405.83,497.23,405.84,494.88L405.84,494.88z"/>
	</g>
</g>
<g>
	<g>
		<path class="st1" d="M433.08,497.12c2.65,0,2.65-3.42,0-3.42C430.43,493.69,430.43,497.12,433.08,497.12L433.08,497.12z"/>
	</g>
</g>
<g>
	<g>
		<path class="st1" d="M431.39,496.68c2.65,0,2.65-3.42,0-3.42C428.75,493.26,428.73,496.68,431.39,496.68L431.39,496.68z"/>
	</g>
</g>
<g>
	<g>
		<path class="st1" d="M430.86,496.06c2.65,0,2.65-3.42,0-3.42C428.21,492.63,428.21,496.06,430.86,496.06L430.86,496.06z"/>
	</g>
</g>
<g>
	<g>
		<path class="st1" d="M432.61,497.61c2.65,0,2.65-3.42,0-3.42S429.97,497.61,432.61,497.61L432.61,497.61z"/>
	</g>
</g>
<g>
	<g>
		<path class="st1" d="M432.76,494.36c-0.03-0.03-0.07-0.06-0.1-0.09c0.11,0.11,0.22,0.23,0.32,0.34c-0.11-0.13-0.21-0.26-0.27-0.41
			c0.07,0.14,0.14,0.27,0.21,0.41c-0.16-0.34-0.23-0.71-0.3-1.06c0.03,0.15,0.05,0.31,0.07,0.46c-0.01-0.05,0-0.09,0-0.13
			c-0.03,0.15-0.05,0.31-0.07,0.46c0.01-0.02,0.01-0.05,0.03-0.06c-0.07,0.14-0.14,0.27-0.21,0.41c0.01-0.01,0.01-0.02,0.03-0.05
			c-0.11,0.11-0.22,0.23-0.32,0.34c0.01-0.01,0.03-0.02,0.04-0.03c-0.14,0.09-0.27,0.18-0.41,0.26c0.03-0.02,0.05-0.03,0.1-0.06
			c-0.16,0.06-0.33,0.11-0.49,0.17c0.12-0.05,0.26-0.06,0.4-0.08c-0.18,0.02-0.37,0.05-0.55,0.06c0.52-0.06,1.04-0.05,1.55,0.01
			c-0.18-0.02-0.37-0.05-0.55-0.06c0.67,0.08,1.34,0.23,1.99,0.43c-0.16-0.06-0.33-0.11-0.49-0.17c0.08,0.03,0.16,0.06,0.23,0.1
			c-0.14-0.09-0.27-0.18-0.41-0.26c0.05,0.03,0.1,0.07,0.14,0.11c-0.11-0.11-0.22-0.23-0.32-0.34c0.03,0.03,0.04,0.07,0.05,0.1
			c-0.07-0.14-0.14-0.27-0.21-0.41c0.01,0.03,0.03,0.07,0.03,0.11c-0.03-0.15-0.05-0.31-0.07-0.46c0.07,0.44,0.1,0.91,0.05,1.36
			c0.03-0.15,0.05-0.31,0.07-0.46c-0.01,0.07-0.03,0.13-0.05,0.18c0.07-0.14,0.14-0.27,0.21-0.41c-0.01,0.02-0.03,0.03-0.04,0.06
			c0.11-0.11,0.22-0.23,0.32-0.34c-0.03,0.02-0.05,0.06-0.08,0.08c0.14-0.09,0.27-0.18,0.41-0.26c-0.03,0.02-0.07,0.03-0.11,0.06
			c0.16-0.06,0.33-0.11,0.49-0.17c-0.07,0.02-0.12,0.03-0.18,0.05c0.18-0.02,0.37-0.05,0.55-0.06c-0.16,0.01-0.33,0.01-0.49-0.01
			c0.18,0.02,0.37,0.05,0.55,0.06c-0.26-0.03-0.51-0.08-0.75-0.16c0.16,0.06,0.33,0.11,0.49,0.17c-0.19-0.07-0.37-0.15-0.55-0.24
			c-0.42-0.24-1.1-0.29-1.59-0.17c-0.48,0.11-0.99,0.41-1.23,0.79c-0.25,0.4-0.38,0.88-0.21,1.32c0.16,0.43,0.48,0.76,0.95,1.03
			c0.48,0.26,1.06,0.48,1.63,0.56c0.86,0.14,1.7,0.15,2.49-0.23c0.55-0.26,0.97-0.75,1.12-1.25c0.1-0.33,0.11-0.67,0.1-1.02
			c0-0.19-0.01-0.4-0.03-0.59c-0.01-0.09-0.01-0.18-0.03-0.27c-0.05-0.41-0.11-0.64-0.32-1c-0.4-0.68-1.23-0.99-2.04-1.21
			c-0.45-0.13-0.92-0.23-1.4-0.3c-0.62-0.09-1.26-0.16-1.89-0.14c-0.88,0.03-1.78,0.15-2.41,0.7c-0.41,0.35-0.64,0.82-0.66,1.31
			c-0.01,0.23,0.04,0.46,0.08,0.67c0.04,0.19,0.07,0.38,0.12,0.57c0.18,0.63,0.55,1.18,1.06,1.67c0.33,0.32,0.96,0.5,1.45,0.5
			c0.51,0,1.11-0.18,1.45-0.5c0.36-0.33,0.63-0.75,0.6-1.21C433.34,495.1,433.15,494.71,432.76,494.36L432.76,494.36z"/>
	</g>
</g>
<g>
	<g>
		<path class="st1" d="M429.3,495.79c0.12,0.23,0.34,0.43,0.53,0.62c0.19,0.19,0.45,0.34,0.69,0.49c0.11,0.07,0.22,0.13,0.34,0.17
			c0.27,0.1,0.56,0.22,0.86,0.26c0.27,0.07,0.55,0.08,0.82,0.03c0.27-0.01,0.53-0.08,0.77-0.21c0.23-0.1,0.44-0.25,0.58-0.44
			c0.18-0.16,0.3-0.35,0.37-0.58c0.03-0.15,0.05-0.31,0.07-0.46c0-0.31-0.1-0.59-0.27-0.87c-0.11-0.11-0.22-0.23-0.32-0.34
			c-0.26-0.22-0.56-0.35-0.9-0.44c-0.12-0.01-0.25-0.05-0.36-0.08c0.16,0.06,0.33,0.11,0.49,0.17c-0.14-0.05-0.25-0.1-0.37-0.18
			c0.14,0.09,0.27,0.18,0.41,0.26c-0.11-0.07-0.21-0.16-0.3-0.25c0.11,0.11,0.22,0.23,0.32,0.34c-0.07-0.08-0.12-0.15-0.18-0.24
			c-0.12-0.19-0.3-0.37-0.53-0.48c-0.19-0.15-0.42-0.25-0.7-0.31c-0.27-0.07-0.55-0.08-0.82-0.03c-0.27,0.01-0.53,0.08-0.77,0.21
			c-0.14,0.09-0.27,0.18-0.41,0.26c-0.26,0.22-0.42,0.47-0.53,0.75c-0.03,0.15-0.05,0.31-0.07,0.46
			C429.02,495.25,429.12,495.53,429.3,495.79L429.3,495.79z"/>
	</g>
</g>
<g>
	<g>
		<path class="st1" d="M431.43,497.93c0.86,0.23,1.9,0.23,2.77-0.02c0.49-0.15,0.97-0.39,1.23-0.79c0.22-0.34,0.3-0.71,0.25-1.1
			c-0.05-0.35-0.23-0.73-0.56-0.98c-0.38-0.3-0.92-0.54-1.45-0.5c-0.12,0.01-0.25,0.01-0.38-0.01c0.18,0.02,0.37,0.05,0.55,0.06
			c-0.19-0.02-0.38-0.08-0.58-0.14c0.16,0.06,0.33,0.11,0.49,0.17c-0.32-0.11-0.62-0.27-0.93-0.41c-0.45-0.21-0.93-0.35-1.41-0.49
			c0.16,0.06,0.33,0.11,0.49,0.17c-0.04-0.01-0.07-0.02-0.1-0.05c0.14,0.09,0.27,0.18,0.41,0.26c-0.03-0.02-0.05-0.05-0.08-0.07
			c0.11,0.11,0.22,0.23,0.32,0.34c-0.07-0.08-0.12-0.17-0.18-0.27c0.07,0.14,0.14,0.27,0.21,0.41c-0.14-0.29-0.23-0.57-0.29-0.88
			c0.03,0.15,0.05,0.31,0.07,0.46c-0.03-0.19-0.04-0.41-0.03-0.6c-0.03,0.15-0.05,0.31-0.07,0.46c0-0.01,0.01-0.02,0.01-0.03
			c-0.18,0.25-0.36,0.5-0.53,0.75c0.01-0.01,0.01-0.01,0.03-0.02c-0.14,0.09-0.27,0.18-0.41,0.26c0.01,0,0.03-0.01,0.04-0.01
			c-0.16,0.06-0.33,0.11-0.49,0.17c0.01,0,0.03,0,0.04-0.01c-0.18,0.02-0.37,0.05-0.55,0.06c1.21-0.13,2.43-0.13,3.63-0.1
			c0.52,0.01,1.08-0.19,1.45-0.5c0.36-0.3,0.63-0.79,0.6-1.21c-0.03-0.44-0.19-0.9-0.6-1.21s-0.89-0.49-1.45-0.5
			c-0.69-0.01-1.37,0-2.06,0.02c-0.34,0.01-0.69,0.02-1.03,0.05c-0.16,0.01-0.32,0.02-0.48,0.03c-0.22,0.02-0.45,0.02-0.67,0.08
			c-0.36,0.09-0.7,0.25-0.96,0.47c-0.56,0.47-0.7,1.12-0.62,1.76c0.04,0.39,0.11,0.8,0.26,1.18c0.18,0.47,0.41,0.98,0.86,1.32
			c0.34,0.26,0.71,0.43,1.16,0.55c0.12,0.03,0.25,0.07,0.37,0.11c-0.16-0.06-0.33-0.11-0.49-0.17c0.41,0.15,0.78,0.35,1.19,0.52
			c0.67,0.27,1.41,0.5,2.17,0.44c-0.18-1.12-0.37-2.24-0.55-3.37c-0.16,0.05-0.33,0.08-0.51,0.11c0.18-0.02,0.37-0.05,0.55-0.06
			c-0.25,0.02-0.48,0.02-0.73,0c0.18,0.02,0.37,0.05,0.55,0.06c-0.15-0.02-0.3-0.05-0.45-0.09c-0.49-0.14-1.14-0.05-1.59,0.17
			c-0.42,0.21-0.84,0.62-0.95,1.03c-0.12,0.43-0.1,0.94,0.21,1.32C430.5,497.52,430.9,497.78,431.43,497.93L431.43,497.93z"/>
	</g>
</g>
<g>
	<g>
		<path d="M27,245.09h43.33c27.84,0,48.32,11.48,48.32,44.89c0,17.16-6.95,33.86-18.81,39.43v1.11
			c15.01,4.57,26.02,18.61,26.02,43.21c0,36.42-22.21,53.47-52.04,53.47H27L27,245.09L27,245.09z M68.19,320.27
			c18.9,0,26.93-9.92,26.93-25.74c0-17.59-8.86-24.29-26.44-24.29H51.03v50h17.16V320.27z M71.34,402.03
			c19.89,0,30.98-9.57,30.98-30.06c0-19.15-10.78-27.5-30.98-27.5H51.05v57.59h20.29V402.03z"/>
		<path d="M141.87,358.91c0-44.43,22.95-71.85,46.9-71.85c27.52,0,42.02,26.73,42.02,64.95c0,6.14-0.51,12.24-1.04,15.6h-64.59
			c1.99,24.29,13.59,38.1,29.99,38.1c8.71,0,16.15-3.66,23.61-9.92l8.12,19.94c-9.7,8.81-21.96,14.8-34.87,14.8
			C163.92,430.53,141.87,404.02,141.87,358.91z M210.16,345.78c0-21.05-6.95-33.86-20.88-33.86c-11.86,0-22.3,11.9-24.37,33.86
			H210.16z"/>
		<path d="M253.59,230.49h23.86v50.91l-0.99,26.39c8.54-10.8,18.64-20.71,32.57-20.71c21.79,0,31.32,19.83,31.32,54.35v85.77h-23.86
			v-81.65c0-22.5-4.8-30.97-15.83-30.97c-8.94,0-14.84,5.91-23.21,17.05v95.57h-23.86L253.59,230.49L253.59,230.49z"/>
		<path d="M363.71,390.44c0-29.29,18.07-44.55,59.81-50.57c-0.34-14.69-4.71-26.96-18.47-26.96c-10.1,0-19.63,6.14-28.58,13.47
			l-8.79-21.39c11.18-9.46,25.6-17.93,41.76-17.93c25.45,0,37.96,21.05,37.96,59.15v80.97h-19.55l-1.82-15.14h-0.66
			c-9.11,10.48-19.55,18.49-31.58,18.49C375.97,430.53,363.71,414.28,363.71,390.44z M423.52,390.55v-30.74
			c-27.58,4.69-36.8,14.38-36.8,28.18c0,12.07,6.13,17.39,14.67,17.39C409.7,405.36,416,399.9,423.52,390.55z"/>
		<path d="M463.38,290.41h24.2l16.15,70.94c2.81,13.47,5.79,27.5,8.62,41.19h0.82c2.81-13.69,5.79-27.73,8.62-41.19l16.15-70.94
			h23.04l-34.56,136.77h-27.58L463.38,290.41z"/>
		<path d="M575.85,248.33c0-10.8,6.3-18.15,14.75-18.15s14.75,7.36,14.75,18.15c0,10.57-6.3,18.15-14.75,18.15
			S575.85,258.9,575.85,248.33z M578.59,290.41h23.86v136.77h-23.86V290.41z"/>
		<path d="M626.13,358.91c0-45.54,23.04-71.85,48.38-71.85s48.38,26.28,48.38,71.85c0,45.34-23.04,71.62-48.38,71.62
			S626.13,404.25,626.13,358.91z M698.39,358.91c0-27.39-8.94-45.66-23.86-45.66c-14.92,0-23.86,18.27-23.86,45.66
			c0,27.39,8.94,45.43,23.86,45.43C689.45,404.36,698.39,386.32,698.39,358.91z"/>
		<path d="M746.56,290.41h19.55l1.82,24.4h0.66c7.25-17.81,18.03-27.73,28.91-27.73c5.18,0,8.45,0.88,11.52,2.78l-4.14,27.84
			c-3.57-1.34-6.21-2.22-10.44-2.22c-8.12,0-17.9,7.47-24.03,28.3v83.41h-23.84V290.41z"/>
		<path d="M817.59,358.91c0-44.55,21.3-71.85,43.58-71.85c10.78,0,19.06,5.45,27.58,16.82h0.66l1.9-13.47h18.98v136.77h-19.55
			l-1.82-14.8h-0.66c-7.55,10.14-17.99,18.15-28.91,18.15C834.01,430.53,817.59,404.02,817.59,358.91z M886.45,388.65v-63.7
			c-6.95-8.35-13.84-11.36-20.71-11.36c-12.93,0-23.61,16.48-23.61,45c0,29.75,8.45,45.43,23.12,45.43
			C873.12,404.02,879.75,399.36,886.45,388.65z"/>
		<path class="st2" d="M942.71,245.09h24.03v154.92h56.26v27.19h-80.29V245.09z"/>
		<path class="st2" d="M1038.39,358.91c0-44.55,21.3-71.85,43.58-71.85c10.78,0,19.06,5.45,27.58,16.82h0.66l1.9-13.47h18.98v136.77
			h-19.55l-1.82-14.8h-0.66c-7.55,10.14-17.99,18.15-28.91,18.15C1054.8,430.53,1038.39,404.02,1038.39,358.91z M1107.25,388.65
			v-63.7c-6.95-8.35-13.84-11.36-20.71-11.36c-12.93,0-23.61,16.48-23.61,45c0,29.75,8.45,45.43,23.12,45.43
			C1093.92,404.02,1100.53,399.36,1107.25,388.65z"/>
		<path class="st2" d="M1182.98,412.83h-0.66l-2.07,14.38h-18.81V230.49h23.86v50.91l-0.66,22.73c8.5-10.03,18.94-17.05,29.38-17.05
			c25.45,0,40.14,27.39,40.14,69.43c0,46.93-20.8,74.01-43.41,74.01C1201.45,430.53,1191.5,424.19,1182.98,412.83z M1229.63,357.03
			c0-27.27-6.64-43.44-22.13-43.44c-7.38,0-14.5,5-22.21,15.37v63.7c7.12,8.35,14.5,11.36,20.37,11.36
			C1219.27,404.02,1229.63,388,1229.63,357.03z"/>
		<path class="st2" d="M1267.93,411.49l11.1-20.37c9.02,9.46,17.78,15.26,28.09,15.26c11.1,0,16.32-7.02,16.32-16.36
			c0-11.48-11.01-16.59-21.88-22.16c-13.34-6.73-28.58-17.05-28.58-39.86c0-23.72,14.25-40.88,37.03-40.88
			c14.16,0,25.51,7.73,33.8,16.36l-10.93,19.72c-7.12-7.02-14.29-11.9-22.28-11.9c-10.23,0-15.07,6.56-15.07,15.14
			c0,10.8,10.27,14.92,21.3,20.37c13.76,6.9,29.17,15.82,29.17,41.31c0,23.5-13.84,42.44-39.52,42.44
			C1292.55,430.53,1277.88,422.52,1267.93,411.49z"/>
	</g>
</g>
<path class="st0" d="M447.82,436.6L447.82,436.6c-10.72,4.77-23.67,4.41-34-0.93l0,0c-10.31-5.34-16.43-14.86-16.03-24.98l0,0
	c0.39-10.12,7.25-19.27,17.97-24.04l0,0c10.72-4.77,23.67-4.41,34,0.94l0,0c10.31,5.34,16.43,14.86,16.03,24.98l0,0
	C465.39,422.66,458.55,431.83,447.82,436.6z"/>
<path class="st2" d="M1068.05,356.01c-1.9,10.88-0.55,24.75,7.57,36.45c11.01,15.82,29.38,1.36,28.41-28.41
	c-0.04-1.48,0.08-14.86-2.11-17.3c-8.29-9.26-8.6,7.67-18.73,14.46C1080.43,363.05,1071.83,364.05,1068.05,356.01"/>
<g>
	<g>
		<path class="st1" d="M1085.67,327.4c0.42-27.61,0.4-55.26-0.08-82.87c-0.23-13.69-16.08-13.75-15.85,0
			c0.46,27.61,0.51,55.26,0.08,82.87C1069.61,341.12,1085.46,341.12,1085.67,327.4L1085.67,327.4z"/>
	</g>
</g>
<ellipse class="st2" cx="1077.11" cy="278.82" rx="6.34" ry="8.52"/>
<ellipse class="st3" cx="1065.49" cy="260.35" rx="5.28" ry="7.1"/>
<path class="st4" d="M1050.7,445.02"/>
<ellipse class="st2" cx="1077.11" cy="244.72" rx="4.23" ry="5.68"/>
<ellipse class="st3" cx="1071.83" cy="226.26" rx="5.28" ry="7.1"/>
<path class="st3" d="M1068.66,375.41c1.12-15.11,5.92-26.51,11.62-28.18c6.62-1.96,11.2,10.11,11.62,11.28"/>
</svg>
