<?xml version="1.0" encoding="utf-8"?>
<!-- Generator: Adobe Illustrator 24.1.2, SVG Export Plug-In . SVG Version: 6.00 Build 0)  -->
<svg version="1.1" id="Layer_1" xmlns="http://www.w3.org/2000/svg" xmlns:xlink="http://www.w3.org/1999/xlink" x="0px" y="0px"
	 viewBox="0 0 1832.17 242.12" style="enable-background:new 0 0 1832.17 242.12;" xml:space="preserve">
<style type="text/css">
	.st0{fill:none;}
	.st1{fill:#FFFFFF;}
	.st2{fill:#176B87;}
	.st3{display:none;fill:none;}
	.st4{fill:#FBF0F0;}
	.st5{opacity:0.5;fill:#176B87;enable-background:new    ;}
	.st6{fill:#3E3388;stroke:#3E3388;stroke-miterlimit:10;}
	.st7{font-family:'MyriadPro-Regular';}
	.st8{font-size:12px;}
</style>
<rect x="479.4" y="321.11" class="st0" width="21.1" height="18"/>
<rect x="559.02" y="350.11" class="st0" width="41.25" height="37"/>
<g>
	<g>
		<path class="st1" d="M532.89,291.98c0.04-4.49,0.08-8.99,0.12-13.49c0.02-2.34-5.98-2.34-6,0c-0.04,4.49-0.08,8.99-0.12,13.49
			C526.88,294.33,532.87,294.34,532.89,291.98L532.89,291.98z"/>
	</g>
</g>
<g>
	<g>
		<path class="st1" d="M570.22,294.22c3.63,0,3.63-3.42,0-3.42S566.6,294.22,570.22,294.22L570.22,294.22z"/>
	</g>
</g>
<g>
	<g>
		<path class="st1" d="M567.91,293.79c3.63,0,3.63-3.42,0-3.42S564.27,293.79,567.91,293.79L567.91,293.79z"/>
	</g>
</g>
<g>
	<g>
		<path class="st1" d="M567.18,293.16c3.63,0,3.63-3.42,0-3.42S563.56,293.16,567.18,293.16L567.18,293.16z"/>
	</g>
</g>
<g>
	<g>
		<path class="st1" d="M569.59,294.71c3.63,0,3.63-3.42,0-3.42S565.96,294.71,569.59,294.71L569.59,294.71z"/>
	</g>
</g>
<g>
	<g>
		<path class="st1" d="M569.79,291.46c-0.04-0.03-0.09-0.06-0.13-0.09c0.15,0.11,0.3,0.23,0.43,0.34c-0.15-0.13-0.28-0.26-0.38-0.41
			c0.09,0.14,0.19,0.27,0.28,0.41c-0.23-0.34-0.32-0.71-0.41-1.06c0.04,0.15,0.08,0.31,0.09,0.46c-0.02-0.05,0-0.09,0-0.13
			c-0.04,0.15-0.08,0.31-0.09,0.46c0.02-0.02,0.02-0.05,0.04-0.06c-0.09,0.14-0.19,0.27-0.28,0.41c0.02-0.01,0.02-0.02,0.04-0.05
			c-0.15,0.11-0.3,0.23-0.43,0.34c0.02-0.01,0.04-0.02,0.06-0.03c-0.19,0.09-0.38,0.18-0.56,0.26c0.04-0.02,0.08-0.03,0.13-0.06
			c-0.23,0.06-0.45,0.11-0.68,0.17c0.17-0.05,0.36-0.06,0.54-0.08c-0.24,0.02-0.51,0.05-0.75,0.06c0.71-0.06,1.43-0.05,2.12,0.01
			c-0.24-0.02-0.51-0.05-0.75-0.06c0.92,0.08,1.84,0.23,2.72,0.43c-0.23-0.06-0.45-0.11-0.68-0.17c0.11,0.03,0.23,0.06,0.32,0.1
			c-0.19-0.09-0.38-0.18-0.56-0.26c0.08,0.03,0.13,0.07,0.19,0.11c-0.15-0.11-0.3-0.23-0.43-0.34c0.04,0.03,0.06,0.07,0.08,0.1
			c-0.09-0.14-0.19-0.27-0.28-0.41c0.02,0.03,0.04,0.07,0.04,0.11c-0.04-0.15-0.08-0.31-0.09-0.46c0.09,0.44,0.13,0.91,0.08,1.36
			c0.04-0.15,0.08-0.31,0.09-0.46c-0.02,0.07-0.04,0.13-0.08,0.18c0.09-0.14,0.19-0.27,0.28-0.41c-0.02,0.02-0.04,0.03-0.06,0.06
			c0.15-0.11,0.3-0.23,0.43-0.34c-0.04,0.02-0.08,0.06-0.11,0.08c0.19-0.09,0.38-0.18,0.56-0.26c-0.04,0.02-0.09,0.03-0.15,0.06
			c0.23-0.06,0.45-0.11,0.68-0.17c-0.09,0.02-0.17,0.03-0.24,0.05c0.24-0.02,0.51-0.05,0.75-0.06c-0.23,0.01-0.45,0.01-0.68-0.01
			c0.24,0.02,0.51,0.05,0.75,0.06c-0.36-0.03-0.7-0.08-1.03-0.16c0.23,0.06,0.45,0.11,0.68,0.17c-0.26-0.07-0.51-0.15-0.75-0.24
			c-0.58-0.24-1.5-0.29-2.18-0.17c-0.66,0.11-1.35,0.41-1.69,0.79c-0.34,0.4-0.53,0.88-0.28,1.32c0.23,0.43,0.66,0.76,1.3,1.03
			c0.66,0.26,1.45,0.48,2.24,0.56c1.18,0.14,2.33,0.15,3.42-0.23c0.75-0.26,1.33-0.75,1.54-1.25c0.13-0.33,0.15-0.67,0.13-1.02
			c0-0.19-0.02-0.4-0.04-0.59c-0.02-0.09-0.02-0.18-0.04-0.27c-0.08-0.41-0.15-0.64-0.43-1c-0.54-0.68-1.69-0.99-2.8-1.21
			c-0.62-0.13-1.26-0.23-1.92-0.3c-0.85-0.09-1.73-0.16-2.59-0.14c-1.2,0.03-2.44,0.15-3.31,0.7c-0.56,0.35-0.88,0.82-0.9,1.31
			c-0.02,0.23,0.06,0.46,0.11,0.67c0.06,0.19,0.09,0.38,0.17,0.57c0.24,0.63,0.75,1.18,1.45,1.67c0.45,0.32,1.31,0.5,1.99,0.5
			c0.7,0,1.52-0.18,1.99-0.5c0.49-0.33,0.86-0.75,0.83-1.21C570.58,292.2,570.32,291.82,569.79,291.46L569.79,291.46z"/>
	</g>
</g>
<g>
	<g>
		<path class="st1" d="M565.04,292.9c0.17,0.23,0.47,0.43,0.73,0.62c0.26,0.19,0.62,0.34,0.94,0.49c0.15,0.07,0.3,0.13,0.47,0.17
			c0.38,0.1,0.77,0.22,1.18,0.26c0.38,0.07,0.75,0.08,1.13,0.03c0.38-0.01,0.73-0.08,1.05-0.21c0.32-0.1,0.6-0.25,0.79-0.44
			c0.24-0.16,0.41-0.35,0.51-0.58c0.04-0.15,0.08-0.31,0.09-0.46c0-0.31-0.13-0.59-0.38-0.87c-0.15-0.11-0.3-0.23-0.43-0.34
			c-0.36-0.22-0.77-0.35-1.24-0.44c-0.17-0.01-0.34-0.05-0.49-0.08c0.23,0.06,0.45,0.11,0.68,0.17c-0.19-0.05-0.34-0.1-0.51-0.18
			c0.19,0.09,0.38,0.18,0.56,0.26c-0.15-0.07-0.28-0.16-0.41-0.25c0.15,0.11,0.3,0.23,0.43,0.34c-0.09-0.08-0.17-0.15-0.24-0.24
			c-0.17-0.19-0.41-0.37-0.73-0.48c-0.26-0.15-0.58-0.25-0.96-0.31c-0.38-0.07-0.75-0.08-1.13-0.03c-0.38,0.01-0.73,0.08-1.05,0.21
			c-0.19,0.09-0.38,0.18-0.56,0.26c-0.36,0.22-0.58,0.47-0.73,0.75c-0.04,0.15-0.08,0.31-0.09,0.46
			C564.66,292.35,564.8,292.64,565.04,292.9L565.04,292.9z"/>
	</g>
</g>
<g>
	<g>
		<path class="st1" d="M567.97,295.03c1.18,0.23,2.61,0.23,3.79-0.02c0.68-0.15,1.33-0.39,1.69-0.79c0.3-0.34,0.41-0.71,0.34-1.1
			c-0.08-0.35-0.32-0.73-0.77-0.98c-0.53-0.3-1.26-0.54-1.99-0.5c-0.17,0.01-0.34,0.01-0.53-0.01c0.24,0.02,0.51,0.05,0.75,0.06
			c-0.26-0.02-0.53-0.08-0.79-0.14c0.23,0.06,0.45,0.11,0.68,0.17c-0.43-0.11-0.85-0.27-1.28-0.41c-0.62-0.21-1.28-0.35-1.93-0.49
			c0.23,0.06,0.45,0.11,0.68,0.17c-0.06-0.01-0.09-0.02-0.13-0.05c0.19,0.09,0.38,0.18,0.56,0.26c-0.04-0.02-0.08-0.05-0.11-0.07
			c0.15,0.11,0.3,0.23,0.43,0.34c-0.09-0.08-0.17-0.17-0.24-0.27c0.09,0.14,0.19,0.27,0.28,0.41c-0.19-0.29-0.32-0.57-0.39-0.88
			c0.04,0.15,0.08,0.31,0.09,0.46c-0.04-0.19-0.06-0.41-0.04-0.6c-0.04,0.15-0.08,0.31-0.09,0.46c0-0.01,0.02-0.02,0.02-0.03
			c-0.24,0.25-0.49,0.5-0.73,0.75c0.02-0.01,0.02-0.01,0.04-0.02c-0.19,0.09-0.38,0.18-0.56,0.26c0.02,0,0.04-0.01,0.06-0.01
			c-0.23,0.06-0.45,0.11-0.68,0.17c0.02,0,0.04,0,0.06-0.01c-0.24,0.02-0.51,0.05-0.75,0.06c1.65-0.13,3.32-0.13,4.98-0.1
			c0.71,0.01,1.48-0.19,1.99-0.5c0.49-0.3,0.86-0.79,0.83-1.21c-0.04-0.44-0.26-0.9-0.83-1.21c-0.56-0.31-1.22-0.49-1.99-0.5
			c-0.94-0.01-1.88,0-2.82,0.02c-0.47,0.01-0.94,0.02-1.41,0.05c-0.23,0.01-0.43,0.02-0.66,0.03c-0.3,0.02-0.62,0.02-0.92,0.08
			c-0.49,0.09-0.96,0.25-1.31,0.47c-0.77,0.47-0.96,1.12-0.85,1.76c0.06,0.39,0.15,0.8,0.36,1.18c0.24,0.47,0.56,0.98,1.18,1.32
			c0.47,0.26,0.98,0.43,1.6,0.55c0.17,0.03,0.34,0.07,0.51,0.11c-0.23-0.06-0.45-0.11-0.68-0.17c0.56,0.15,1.07,0.35,1.63,0.52
			c0.92,0.27,1.93,0.5,2.97,0.44c-0.24-1.12-0.51-2.24-0.75-3.37c-0.23,0.05-0.45,0.08-0.7,0.11c0.24-0.02,0.51-0.05,0.75-0.06
			c-0.34,0.02-0.66,0.02-1,0c0.24,0.02,0.51,0.05,0.75,0.06c-0.21-0.02-0.41-0.05-0.62-0.09c-0.68-0.14-1.56-0.05-2.18,0.17
			c-0.58,0.21-1.15,0.62-1.3,1.03c-0.17,0.43-0.13,0.94,0.28,1.32C566.69,294.62,567.24,294.88,567.97,295.03L567.97,295.03z"/>
	</g>
</g>
<g>
	<g>
		<path d="M12.28,42.2h59.39c38.15,0,66.22,11.48,66.22,44.89c0,17.16-9.53,33.86-25.78,39.43v1.11
			c20.57,4.57,35.66,18.61,35.66,43.21c0,36.42-30.45,53.47-71.32,53.47H12.28L12.28,42.2L12.28,42.2z M68.74,117.37
			c25.9,0,36.91-9.92,36.91-25.74c0-17.59-12.14-24.29-36.24-24.29H45.21v50h23.52V117.37z M73.05,199.14
			c27.26,0,42.47-9.57,42.47-30.06c0-19.15-14.77-27.5-42.47-27.5H45.24v57.59h27.81V199.14z"/>
		<path d="M169.72,156.01c0-44.43,31.46-71.85,64.28-71.85c37.72,0,57.59,26.73,57.59,64.95c0,6.14-0.7,12.24-1.42,15.6h-88.53
			c2.72,24.29,18.63,38.1,41.11,38.1c11.94,0,22.13-3.66,32.36-9.92l11.12,19.94c-13.3,8.81-30.1,14.8-47.8,14.8
			C199.93,227.63,169.72,201.13,169.72,156.01z M263.32,142.89c0-21.05-9.53-33.86-28.62-33.86c-16.25,0-30.56,11.9-33.4,33.86
			H263.32z"/>
		<path d="M322.85,27.6h32.71v50.91l-1.36,26.39c11.7-10.8,25.55-20.71,44.64-20.71c29.87,0,42.93,19.83,42.93,54.35v85.77h-32.71
			v-81.65c0-22.5-6.58-30.97-21.7-30.97c-12.25,0-20.34,5.91-31.81,17.05v95.57h-32.71L322.85,27.6L322.85,27.6z"/>
		<path d="M473.77,187.55c0-29.29,24.77-44.55,81.98-50.57c-0.46-14.69-6.46-26.96-25.32-26.96c-13.85,0-26.91,6.14-39.17,13.47
			l-12.05-21.39c15.32-9.46,35.08-17.93,57.24-17.93c34.88,0,52.03,21.05,52.03,59.15v80.97h-26.8l-2.49-15.14h-0.9
			c-12.49,10.48-26.8,18.49-43.28,18.49C490.58,227.63,473.77,211.38,473.77,187.55z M555.76,187.66v-30.74
			c-37.8,4.69-50.43,14.38-50.43,28.18c0,12.07,8.4,17.39,20.1,17.39C536.81,202.46,545.44,197.01,555.76,187.66z"/>
		<path d="M610.39,87.51h33.17l22.13,70.94c3.85,13.47,7.94,27.5,11.82,41.19h1.13c3.85-13.69,7.94-27.73,11.82-41.19l22.13-70.94
			h31.58L696.8,224.28H659L610.39,87.51z"/>
		<path d="M764.53,45.44c0-10.8,8.63-18.15,20.22-18.15s20.22,7.36,20.22,18.15c0,10.57-8.63,18.15-20.22,18.15
			S764.53,56.01,764.53,45.44z M768.3,87.51H801v136.77H768.3V87.51z"/>
		<path d="M833.45,156.01c0-45.54,31.58-71.85,66.31-71.85s66.31,26.28,66.31,71.85c0,45.34-31.58,71.62-66.31,71.62
			S833.45,201.35,833.45,156.01z M932.49,156.01c0-27.39-12.25-45.66-32.71-45.66s-32.71,18.27-32.71,45.66s12.25,45.43,32.71,45.43
			C920.24,201.47,932.49,183.43,932.49,156.01z"/>
		<path d="M998.51,87.51h26.8l2.49,24.4h0.9c9.94-17.81,24.71-27.73,39.63-27.73c7.1,0,11.59,0.88,15.79,2.78l-5.68,27.84
			c-4.9-1.34-8.52-2.22-14.31-2.22c-11.12,0-24.54,7.47-32.94,28.3v83.41h-32.68V87.51z"/>
		<path d="M1095.87,156.01c0-44.55,29.2-71.85,59.73-71.85c14.77,0,26.13,5.45,37.8,16.82h0.9l2.61-13.47h26.01v136.77h-26.8
			l-2.49-14.8h-0.9c-10.34,10.14-24.65,18.15-39.63,18.15C1118.38,227.63,1095.87,201.13,1095.87,156.01z M1190.25,185.76v-63.7
			c-9.53-8.35-18.97-11.36-28.39-11.36c-17.73,0-32.36,16.48-32.36,45c0,29.75,11.59,45.43,31.69,45.43
			C1171.97,201.13,1181.07,196.47,1190.25,185.76z"/>
		<path class="st2" d="M1267.37,42.2h32.94v154.92h77.11v27.19h-110.05V42.2z"/>
		<path class="st2" d="M1398.51,156.01c0-44.55,29.2-71.85,59.73-71.85c14.77,0,26.13,5.45,37.8,16.82h0.9l2.61-13.47h26.01v136.77
			h-26.8l-2.49-14.8h-0.9c-10.34,10.14-24.65,18.15-39.63,18.15C1420.99,227.63,1398.51,201.13,1398.51,156.01z M1492.89,185.76
			v-63.7c-9.53-8.35-18.97-11.36-28.39-11.36c-17.73,0-32.36,16.48-32.36,45c0,29.75,11.59,45.43,31.69,45.43
			C1474.61,201.13,1483.67,196.47,1492.89,185.76z"/>
		<path class="st2" d="M1596.68,209.93h-0.9l-2.84,14.38h-25.78V27.6h32.71v50.91l-0.9,22.73c11.65-10.03,25.96-17.05,40.27-17.05
			c34.88,0,55.01,27.39,55.01,69.43c0,46.93-28.5,74.01-59.5,74.01C1622,227.63,1608.36,221.3,1596.68,209.93z M1660.61,154.14
			c0-27.27-9.1-43.44-30.33-43.44c-10.11,0-19.87,5-30.45,15.37v63.7c9.76,8.35,19.87,11.36,27.93,11.36
			C1646.42,201.13,1660.61,185.1,1660.61,154.14z"/>
		<path class="st2" d="M1713.11,208.6l15.21-20.37c12.37,9.46,24.36,15.26,38.5,15.26c15.21,0,22.36-7.02,22.36-16.36
			c0-11.48-15.09-16.59-29.98-22.16c-18.28-6.73-39.17-17.05-39.17-39.86c0-23.72,19.52-40.88,50.75-40.88
			c19.41,0,34.96,7.73,46.32,16.36l-14.98,19.72c-9.76-7.02-19.58-11.9-30.53-11.9c-14.02,0-20.65,6.56-20.65,15.14
			c0,10.8,14.08,14.92,29.2,20.37c18.86,6.9,39.98,15.82,39.98,41.31c0,23.5-18.97,42.44-54.17,42.44
			C1746.85,227.63,1726.75,219.62,1713.11,208.6z"/>
	</g>
</g>
<path class="st3" d="M590.44,233.71L590.44,233.71c-14.7,4.77-32.45,4.41-46.6-0.94l0,0c-14.14-5.34-22.51-14.86-21.97-24.98l0,0
	c0.54-10.12,9.94-19.27,24.63-24.04l0,0c14.7-4.77,32.45-4.41,46.6,0.94l0,0c14.14,5.34,22.51,14.86,21.97,24.98l0,0
	C614.51,219.77,605.13,228.94,590.44,233.71z"/>
<path class="st2" d="M1440.52,153.11c-2.61,10.88-0.75,24.75,10.37,36.45c15.09,15.82,40.27,1.36,38.93-28.41
	c-0.06-1.48,0.12-14.86-2.9-17.3c-11.36-9.26-11.79,7.67-25.67,14.46C1457.5,160.16,1445.71,161.15,1440.52,153.11"/>
<g>
	<g>
		<path class="st4" d="M1464.68,124.5c0.58-27.61,0.55-55.26-0.12-82.87c-0.32-13.69-22.05-13.75-21.73,0
			c0.64,27.61,0.7,55.26,0.12,82.87C1442.66,138.23,1464.39,138.23,1464.68,124.5L1464.68,124.5z"/>
	</g>
</g>
<ellipse class="st2" cx="1452.95" cy="75.92" rx="8.69" ry="8.52"/>
<ellipse class="st5" cx="1437.02" cy="57.46" rx="7.24" ry="7.1"/>
<path class="st6" d="M1416.74,242.12"/>
<ellipse class="st2" cx="1452.95" cy="41.83" rx="5.79" ry="5.68"/>
<ellipse class="st5" cx="1445.71" cy="23.36" rx="7.24" ry="7.1"/>
<path class="st5" d="M1441.36,172.52c1.54-15.11,8.11-26.51,15.93-28.18c9.07-1.96,15.35,10.11,15.93,11.28"/>
<text transform="matrix(1.3706 0 0 1 512.6165 87.7255)" class="st7 st8">v</text>
</svg>
