<?xml version="1.0" encoding="utf-8"?>
<!-- Generator: Adobe Illustrator 24.1.2, SVG Export Plug-In . SVG Version: 6.00 Build 0)  -->
<svg version="1.1" id="Layer_1" xmlns="http://www.w3.org/2000/svg" xmlns:xlink="http://www.w3.org/1999/xlink" x="0px" y="0px"
	 viewBox="0 0 1359.43 225.86" style="enable-background:new 0 0 1359.43 225.86;" xml:space="preserve">
<style type="text/css">
	.st0{fill:none;}
	.st1{fill:#FFFFFF;}
	.st2{fill:#3E3388;}
	.st3{opacity:0.5;fill:#3E3388;enable-background:new    ;}
	.st4{fill:#3E3388;stroke:#3E3388;stroke-miterlimit:10;}
</style>
<rect x="506.43" y="304.84" class="st0" width="22" height="18"/>
<rect x="589.43" y="333.84" class="st0" width="43" height="37"/>
<g>
	<g>
		<path class="st1" d="M399.27,275.72c0.03-4.49,0.06-8.99,0.09-13.49c0.01-2.34-4.36-2.34-4.38,0c-0.03,4.49-0.06,8.99-0.09,13.49
			C394.88,278.06,399.25,278.08,399.27,275.72L399.27,275.72z"/>
	</g>
</g>
<g>
	<g>
		<path class="st1" d="M426.5,277.96c2.65,0,2.65-3.42,0-3.42S423.86,277.96,426.5,277.96L426.5,277.96z"/>
	</g>
</g>
<g>
	<g>
		<path class="st1" d="M424.82,277.53c2.65,0,2.65-3.42,0-3.42S422.16,277.53,424.82,277.53L424.82,277.53z"/>
	</g>
</g>
<g>
	<g>
		<path class="st1" d="M424.28,276.9c2.65,0,2.65-3.42,0-3.42C421.64,273.48,421.64,276.9,424.28,276.9L424.28,276.9z"/>
	</g>
</g>
<g>
	<g>
		<path class="st1" d="M426.04,278.45c2.65,0,2.65-3.42,0-3.42S423.39,278.45,426.04,278.45L426.04,278.45z"/>
	</g>
</g>
<g>
	<g>
		<path class="st1" d="M426.19,275.2c-0.03-0.03-0.07-0.06-0.1-0.09c0.11,0.11,0.22,0.23,0.32,0.34c-0.11-0.13-0.21-0.26-0.27-0.41
			c0.07,0.14,0.14,0.27,0.21,0.41c-0.16-0.34-0.23-0.71-0.3-1.06c0.03,0.15,0.05,0.31,0.07,0.46c-0.01-0.05,0-0.09,0-0.13
			c-0.03,0.15-0.05,0.31-0.07,0.46c0.01-0.02,0.01-0.05,0.03-0.06c-0.07,0.14-0.14,0.27-0.21,0.41c0.01-0.01,0.01-0.02,0.03-0.05
			c-0.11,0.11-0.22,0.23-0.32,0.34c0.01-0.01,0.03-0.02,0.04-0.03c-0.14,0.09-0.27,0.18-0.41,0.26c0.03-0.02,0.05-0.03,0.1-0.06
			c-0.16,0.06-0.33,0.11-0.49,0.17c0.12-0.05,0.26-0.06,0.4-0.08c-0.18,0.02-0.37,0.05-0.55,0.06c0.52-0.06,1.04-0.05,1.55,0.01
			c-0.18-0.02-0.37-0.05-0.55-0.06c0.67,0.08,1.34,0.23,1.99,0.43c-0.16-0.06-0.33-0.11-0.49-0.17c0.08,0.03,0.16,0.06,0.23,0.1
			c-0.14-0.09-0.27-0.18-0.41-0.26c0.05,0.03,0.1,0.07,0.14,0.11c-0.11-0.11-0.22-0.23-0.32-0.34c0.03,0.03,0.04,0.07,0.05,0.1
			c-0.07-0.14-0.14-0.27-0.21-0.41c0.01,0.03,0.03,0.07,0.03,0.11c-0.03-0.15-0.05-0.31-0.07-0.46c0.07,0.44,0.1,0.91,0.05,1.36
			c0.03-0.15,0.05-0.31,0.07-0.46c-0.01,0.07-0.03,0.13-0.05,0.18c0.07-0.14,0.14-0.27,0.21-0.41c-0.01,0.02-0.03,0.03-0.04,0.06
			c0.11-0.11,0.22-0.23,0.32-0.34c-0.03,0.02-0.05,0.06-0.08,0.08c0.14-0.09,0.27-0.18,0.41-0.26c-0.03,0.02-0.07,0.03-0.11,0.06
			c0.16-0.06,0.33-0.11,0.49-0.17c-0.07,0.02-0.12,0.03-0.18,0.05c0.18-0.02,0.37-0.05,0.55-0.06c-0.16,0.01-0.33,0.01-0.49-0.01
			c0.18,0.02,0.37,0.05,0.55,0.06c-0.26-0.03-0.51-0.08-0.75-0.16c0.16,0.06,0.33,0.11,0.49,0.17c-0.19-0.07-0.37-0.15-0.55-0.24
			c-0.42-0.24-1.1-0.29-1.59-0.17c-0.48,0.11-0.99,0.41-1.23,0.79c-0.25,0.4-0.38,0.88-0.21,1.32c0.16,0.43,0.48,0.76,0.95,1.03
			c0.48,0.26,1.06,0.48,1.63,0.56c0.86,0.14,1.7,0.15,2.49-0.23c0.55-0.26,0.97-0.75,1.12-1.25c0.1-0.33,0.11-0.67,0.1-1.02
			c0-0.19-0.01-0.4-0.03-0.59c-0.01-0.09-0.01-0.18-0.03-0.27c-0.05-0.41-0.11-0.64-0.32-1c-0.4-0.68-1.23-0.99-2.04-1.21
			c-0.45-0.13-0.92-0.23-1.4-0.3c-0.62-0.09-1.26-0.16-1.89-0.14c-0.88,0.03-1.78,0.15-2.41,0.7c-0.41,0.35-0.64,0.82-0.66,1.31
			c-0.01,0.23,0.04,0.46,0.08,0.67c0.04,0.19,0.07,0.38,0.12,0.57c0.18,0.63,0.55,1.18,1.06,1.67c0.33,0.32,0.96,0.5,1.45,0.5
			c0.51,0,1.11-0.18,1.45-0.5c0.36-0.33,0.63-0.75,0.6-1.21C426.76,275.94,426.57,275.55,426.19,275.2L426.19,275.2z"/>
	</g>
</g>
<g>
	<g>
		<path class="st1" d="M422.72,276.64c0.12,0.23,0.34,0.43,0.53,0.62c0.19,0.19,0.45,0.34,0.69,0.49c0.11,0.07,0.22,0.13,0.34,0.17
			c0.27,0.1,0.56,0.22,0.86,0.26c0.27,0.07,0.55,0.08,0.82,0.03c0.27-0.01,0.53-0.08,0.77-0.21c0.23-0.1,0.44-0.25,0.58-0.44
			c0.18-0.16,0.3-0.35,0.37-0.58c0.03-0.15,0.05-0.31,0.07-0.46c0-0.31-0.1-0.59-0.27-0.87c-0.11-0.11-0.22-0.23-0.32-0.34
			c-0.26-0.22-0.56-0.35-0.9-0.44c-0.12-0.01-0.25-0.05-0.36-0.08c0.16,0.06,0.33,0.11,0.49,0.17c-0.14-0.05-0.25-0.1-0.37-0.18
			c0.14,0.09,0.27,0.18,0.41,0.26c-0.11-0.07-0.21-0.16-0.3-0.25c0.11,0.11,0.22,0.23,0.32,0.34c-0.07-0.08-0.12-0.15-0.18-0.24
			c-0.12-0.19-0.3-0.37-0.53-0.48c-0.19-0.15-0.42-0.25-0.7-0.31c-0.27-0.07-0.55-0.08-0.82-0.03c-0.27,0.01-0.53,0.08-0.77,0.21
			c-0.14,0.09-0.27,0.18-0.41,0.26c-0.26,0.22-0.42,0.47-0.53,0.75c-0.03,0.15-0.05,0.31-0.07,0.46
			C422.45,276.09,422.54,276.38,422.72,276.64L422.72,276.64z"/>
	</g>
</g>
<g>
	<g>
		<path class="st1" d="M424.86,278.77c0.86,0.23,1.9,0.23,2.77-0.02c0.49-0.15,0.97-0.39,1.23-0.79c0.22-0.34,0.3-0.71,0.25-1.1
			c-0.05-0.35-0.23-0.73-0.56-0.98c-0.38-0.3-0.92-0.54-1.45-0.5c-0.12,0.01-0.25,0.01-0.38-0.01c0.18,0.02,0.37,0.05,0.55,0.06
			c-0.19-0.02-0.38-0.08-0.58-0.14c0.16,0.06,0.33,0.11,0.49,0.17c-0.32-0.11-0.62-0.27-0.93-0.41c-0.45-0.21-0.93-0.35-1.41-0.49
			c0.16,0.06,0.33,0.11,0.49,0.17c-0.04-0.01-0.07-0.02-0.1-0.05c0.14,0.09,0.27,0.18,0.41,0.26c-0.03-0.02-0.05-0.05-0.08-0.07
			c0.11,0.11,0.22,0.23,0.32,0.34c-0.07-0.08-0.12-0.17-0.18-0.27c0.07,0.14,0.14,0.27,0.21,0.41c-0.14-0.29-0.23-0.57-0.29-0.88
			c0.03,0.15,0.05,0.31,0.07,0.46c-0.03-0.19-0.04-0.41-0.03-0.6c-0.03,0.15-0.05,0.31-0.07,0.46c0-0.01,0.01-0.02,0.01-0.03
			c-0.18,0.25-0.36,0.5-0.53,0.75c0.01-0.01,0.01-0.01,0.03-0.02c-0.14,0.09-0.27,0.18-0.41,0.26c0.01,0,0.03-0.01,0.04-0.01
			c-0.16,0.06-0.33,0.11-0.49,0.17c0.01,0,0.03,0,0.04-0.01c-0.18,0.02-0.37,0.05-0.55,0.06c1.21-0.13,2.43-0.13,3.63-0.1
			c0.52,0.01,1.08-0.19,1.45-0.5c0.36-0.3,0.63-0.79,0.6-1.21c-0.03-0.44-0.19-0.9-0.6-1.21c-0.41-0.31-0.89-0.49-1.45-0.5
			c-0.69-0.01-1.37,0-2.06,0.02c-0.34,0.01-0.69,0.02-1.03,0.05c-0.16,0.01-0.32,0.02-0.48,0.03c-0.22,0.02-0.45,0.02-0.67,0.08
			c-0.36,0.09-0.7,0.25-0.96,0.47c-0.56,0.47-0.7,1.12-0.62,1.76c0.04,0.39,0.11,0.8,0.26,1.18c0.18,0.47,0.41,0.98,0.86,1.32
			c0.34,0.26,0.71,0.43,1.16,0.55c0.12,0.03,0.25,0.07,0.37,0.11c-0.16-0.06-0.33-0.11-0.49-0.17c0.41,0.15,0.78,0.35,1.19,0.52
			c0.67,0.27,1.41,0.5,2.17,0.44c-0.18-1.12-0.37-2.24-0.55-3.37c-0.16,0.05-0.33,0.08-0.51,0.11c0.18-0.02,0.37-0.05,0.55-0.06
			c-0.25,0.02-0.48,0.02-0.73,0c0.18,0.02,0.37,0.05,0.55,0.06c-0.15-0.02-0.3-0.05-0.45-0.09c-0.49-0.14-1.14-0.05-1.59,0.17
			c-0.42,0.21-0.84,0.62-0.95,1.03c-0.12,0.43-0.1,0.94,0.21,1.32C423.93,278.36,424.33,278.62,424.86,278.77L424.86,278.77z"/>
	</g>
</g>
<g>
	<g>
		<path d="M20.43,25.94h43.33c27.84,0,48.32,11.48,48.32,44.89c0,17.16-6.95,33.86-18.81,39.43v1.11
			c15.01,4.57,26.02,18.61,26.02,43.21c0,36.42-22.21,53.47-52.04,53.47H20.43L20.43,25.94L20.43,25.94z M61.62,101.11
			c18.9,0,26.93-9.92,26.93-25.74c0-17.59-8.86-24.29-26.44-24.29H44.46v50h17.16V101.11z M64.77,182.88
			c19.89,0,30.98-9.57,30.98-30.06c0-19.15-10.78-27.5-30.98-27.5H44.48v57.59h20.29V182.88z"/>
		<path d="M135.3,139.75c0-44.43,22.95-71.85,46.9-71.85c27.52,0,42.02,26.73,42.02,64.95c0,6.14-0.51,12.24-1.04,15.6h-64.59
			c1.99,24.29,13.59,38.1,29.99,38.1c8.71,0,16.15-3.66,23.61-9.92l8.12,19.94c-9.7,8.81-21.96,14.8-34.87,14.8
			C157.34,211.37,135.3,184.86,135.3,139.75z M203.59,126.62c0-21.05-6.95-33.86-20.88-33.86c-11.86,0-22.3,11.9-24.37,33.86H203.59
			z"/>
		<path d="M247.02,11.34h23.86v50.91l-0.99,26.39c8.54-10.8,18.64-20.71,32.57-20.71c21.79,0,31.32,19.83,31.32,54.35v85.77h-23.86
			V126.4c0-22.5-4.8-30.97-15.83-30.97c-8.94,0-14.84,5.91-23.21,17.05v95.57h-23.86L247.02,11.34L247.02,11.34z"/>
		<path d="M357.13,171.28c0-29.29,18.07-44.55,59.81-50.57c-0.34-14.69-4.71-26.96-18.47-26.96c-10.1,0-19.63,6.14-28.58,13.47
			l-8.79-21.39c11.18-9.46,25.6-17.93,41.76-17.93c25.45,0,37.96,21.05,37.96,59.15v80.97h-19.55l-1.82-15.14h-0.66
			c-9.11,10.48-19.55,18.49-31.58,18.49C369.39,211.37,357.13,195.12,357.13,171.28z M416.95,171.4v-30.74
			c-27.58,4.69-36.8,14.38-36.8,28.18c0,12.07,6.13,17.39,14.67,17.39C403.13,186.2,409.42,180.75,416.95,171.4z"/>
		<path d="M456.81,71.25h24.2l16.15,70.94c2.81,13.47,5.79,27.5,8.62,41.19h0.82c2.81-13.69,5.79-27.73,8.62-41.19l16.15-70.94
			h23.04l-34.56,136.77h-27.58L456.81,71.25z"/>
		<path d="M569.27,29.18c0-10.8,6.3-18.15,14.75-18.15s14.75,7.36,14.75,18.15c0,10.57-6.3,18.15-14.75,18.15
			S569.27,39.75,569.27,29.18z M572.02,71.25h23.86v136.77h-23.86V71.25z"/>
		<path d="M619.55,139.75c0-45.54,23.04-71.85,48.38-71.85c25.34,0,48.38,26.28,48.38,71.85c0,45.34-23.04,71.62-48.38,71.62
			C642.59,211.37,619.55,185.09,619.55,139.75z M691.81,139.75c0-27.39-8.94-45.66-23.86-45.66s-23.86,18.27-23.86,45.66
			s8.94,45.43,23.86,45.43C682.87,185.21,691.81,167.17,691.81,139.75z"/>
		<path d="M739.98,71.25h19.55l1.82,24.4h0.66c7.25-17.81,18.03-27.73,28.91-27.73c5.18,0,8.45,0.88,11.52,2.78l-4.14,27.84
			c-3.57-1.34-6.21-2.22-10.44-2.22c-8.12,0-17.9,7.47-24.03,28.3v83.41h-23.84V71.25z"/>
		<path d="M811.02,139.75c0-44.55,21.3-71.85,43.58-71.85c10.78,0,19.06,5.45,27.58,16.82h0.66l1.9-13.47h18.98v136.77h-19.55
			l-1.82-14.8h-0.66c-7.55,10.14-17.99,18.15-28.91,18.15C827.44,211.37,811.02,184.86,811.02,139.75z M879.88,169.49v-63.7
			c-6.95-8.35-13.84-11.36-20.71-11.36c-12.93,0-23.61,16.48-23.61,45c0,29.75,8.45,45.43,23.12,45.43
			C866.54,184.86,873.18,180.21,879.88,169.49z"/>
		<path class="st2" d="M936.14,25.94h24.03v154.92h56.26v27.19h-80.29V25.94z"/>
		<path class="st2" d="M1031.82,139.75c0-44.55,21.3-71.85,43.58-71.85c10.78,0,19.06,5.45,27.58,16.82h0.66l1.9-13.47h18.98v136.77
			h-19.55l-1.82-14.8h-0.66c-7.55,10.14-17.99,18.15-28.91,18.15C1048.22,211.37,1031.82,184.86,1031.82,139.75z M1100.68,169.49
			v-63.7c-6.95-8.35-13.84-11.36-20.71-11.36c-12.93,0-23.61,16.48-23.61,45c0,29.75,8.45,45.43,23.12,45.43
			C1087.34,184.86,1093.96,180.21,1100.68,169.49z"/>
		<path class="st2" d="M1176.41,193.67h-0.66l-2.07,14.38h-18.81V11.34h23.86v50.91l-0.66,22.73c8.5-10.03,18.94-17.05,29.38-17.05
			c25.45,0,40.14,27.39,40.14,69.43c0,46.93-20.8,74.01-43.41,74.01C1194.88,211.37,1184.93,205.04,1176.41,193.67z M1223.05,137.87
			c0-27.27-6.64-43.44-22.13-43.44c-7.38,0-14.5,5-22.21,15.37v63.7c7.12,8.35,14.5,11.36,20.37,11.36
			C1212.7,184.86,1223.05,168.84,1223.05,137.87z"/>
		<path class="st2" d="M1261.35,192.34l11.1-20.37c9.02,9.46,17.78,15.26,28.09,15.26c11.1,0,16.32-7.02,16.32-16.36
			c0-11.48-11.01-16.59-21.88-22.16c-13.34-6.73-28.58-17.05-28.58-39.86c0-23.72,14.25-40.88,37.03-40.88
			c14.16,0,25.51,7.73,33.8,16.36l-10.93,19.72c-7.12-7.02-14.29-11.9-22.28-11.9c-10.23,0-15.07,6.56-15.07,15.14
			c0,10.8,10.27,14.92,21.3,20.37c13.76,6.9,29.17,15.82,29.17,41.31c0,23.5-13.84,42.44-39.52,42.44
			C1285.97,211.37,1271.31,203.36,1261.35,192.34z"/>
	</g>
</g>
<path class="st0" d="M441.25,217.45L441.25,217.45c-10.72,4.77-23.67,4.41-34-0.94l0,0c-10.31-5.34-16.43-14.86-16.03-24.98l0,0
	c0.39-10.12,7.25-19.27,17.97-24.04l0,0c10.72-4.77,23.67-4.41,34,0.94l0,0c10.31,5.34,16.43,14.86,16.03,24.98l0,0
	C458.81,203.51,451.97,212.67,441.25,217.45z"/>
<path class="st2" d="M1061.47,136.85c-1.9,10.88-0.55,24.75,7.57,36.45c11.01,15.82,29.38,1.36,28.41-28.41
	c-0.04-1.48,0.08-14.86-2.11-17.3c-8.29-9.26-8.6,7.67-18.73,14.46C1073.86,143.9,1065.26,144.89,1061.47,136.85"/>
<g>
	<g>
		<path class="st1" d="M1079.1,108.24c0.42-27.61,0.4-55.26-0.08-82.87c-0.23-13.69-16.08-13.75-15.85,0
			c0.46,27.61,0.51,55.26,0.08,82.87C1063.04,121.96,1078.89,121.96,1079.1,108.24L1079.1,108.24z"/>
	</g>
</g>
<ellipse class="st2" cx="1070.54" cy="59.66" rx="6.34" ry="8.52"/>
<ellipse class="st3" cx="1058.92" cy="41.19" rx="5.28" ry="7.1"/>
<path class="st4" d="M1044.12,225.86"/>
<ellipse class="st2" cx="1070.54" cy="25.57" rx="4.23" ry="5.68"/>
<ellipse class="st3" cx="1065.26" cy="7.1" rx="5.28" ry="7.1"/>
<path class="st3" d="M1062.09,156.26c1.12-15.11,5.92-26.51,11.62-28.18c6.62-1.96,11.2,10.11,11.62,11.28"/>
</svg>
