<?xml version="1.0" encoding="utf-8"?>
<!-- Generator: Adobe Illustrator 24.1.2, SVG Export Plug-In . SVG Version: 6.00 Build 0)  -->
<svg version="1.1" id="Layer_1" xmlns="http://www.w3.org/2000/svg" xmlns:xlink="http://www.w3.org/1999/xlink" x="0px" y="0px"
	 viewBox="0 0 1366 768" style="enable-background:new 0 0 1366 768;" xml:space="preserve">
<style type="text/css">
	.st0{fill:none;}
	.st1{fill:#FFFFFF;}
	.st2{fill:#3E3388;}
	.st3{opacity:0.5;fill:#3E3388;}
	.st4{fill:#3E3388;stroke:#3E3388;stroke-miterlimit:10;}
</style>
<rect x="513" y="524" class="st0" width="22" height="18"/>
<rect x="596" y="553" class="st0" width="43" height="37"/>
<g>
	<g>
		<path class="st1" d="M620.71,250.06c0.02-3.7,0.04-7.4,0.06-11.11c0.01-1.93-2.99-1.93-3,0c-0.02,3.7-0.04,7.4-0.06,11.11
			C617.7,251.99,620.7,252,620.71,250.06L620.71,250.06z"/>
	</g>
</g>
<g>
	<g>
		<path class="st1" d="M619.36,261.52c1.93,0,1.93-3,0-3C617.43,258.52,617.43,261.52,619.36,261.52L619.36,261.52z"/>
	</g>
</g>
<g>
	<g>
		<path class="st1" d="M618.13,261.14c1.93,0,1.93-3,0-3C616.2,258.14,616.19,261.14,618.13,261.14L618.13,261.14z"/>
	</g>
</g>
<g>
	<g>
		<path class="st1" d="M617.74,260.59c1.93,0,1.93-3,0-3C615.81,257.59,615.81,260.59,617.74,260.59L617.74,260.59z"/>
	</g>
</g>
<g>
	<g>
		<path class="st1" d="M619.02,261.95c1.93,0,1.93-3,0-3C617.09,258.95,617.09,261.95,619.02,261.95L619.02,261.95z"/>
	</g>
</g>
<g>
	<g>
		<path class="st1" d="M619.13,259.1c-0.02-0.03-0.05-0.05-0.07-0.08c0.08,0.1,0.16,0.2,0.23,0.3c-0.08-0.11-0.15-0.23-0.2-0.36
			c0.05,0.12,0.1,0.24,0.15,0.36c-0.12-0.3-0.17-0.62-0.22-0.93c0.02,0.13,0.04,0.27,0.05,0.4c-0.01-0.04,0-0.08,0-0.11
			c-0.02,0.13-0.04,0.27-0.05,0.4c0.01-0.02,0.01-0.04,0.02-0.05c-0.05,0.12-0.1,0.24-0.15,0.36c0.01-0.01,0.01-0.02,0.02-0.04
			c-0.08,0.1-0.16,0.2-0.23,0.3c0.01-0.01,0.02-0.02,0.03-0.03c-0.1,0.08-0.2,0.16-0.3,0.23c0.02-0.02,0.04-0.03,0.07-0.05
			c-0.12,0.05-0.24,0.1-0.36,0.15c0.09-0.04,0.19-0.05,0.29-0.07c-0.13,0.02-0.27,0.04-0.4,0.05c0.38-0.05,0.76-0.04,1.13,0.01
			c-0.13-0.02-0.27-0.04-0.4-0.05c0.49,0.07,0.98,0.2,1.45,0.38c-0.12-0.05-0.24-0.1-0.36-0.15c0.06,0.03,0.12,0.05,0.17,0.09
			c-0.1-0.08-0.2-0.16-0.3-0.23c0.04,0.03,0.07,0.06,0.1,0.1c-0.08-0.1-0.16-0.2-0.23-0.3c0.02,0.03,0.03,0.06,0.04,0.09
			c-0.05-0.12-0.1-0.24-0.15-0.36c0.01,0.03,0.02,0.06,0.02,0.1c-0.02-0.13-0.04-0.27-0.05-0.4c0.05,0.39,0.07,0.8,0.04,1.19
			c0.02-0.13,0.04-0.27,0.05-0.4c-0.01,0.06-0.02,0.11-0.04,0.16c0.05-0.12,0.1-0.24,0.15-0.36c-0.01,0.02-0.02,0.03-0.03,0.05
			c0.08-0.1,0.16-0.2,0.23-0.3c-0.02,0.02-0.04,0.05-0.06,0.07c0.1-0.08,0.2-0.16,0.3-0.23c-0.02,0.02-0.05,0.03-0.08,0.05
			c0.12-0.05,0.24-0.1,0.36-0.15c-0.05,0.02-0.09,0.03-0.13,0.04c0.13-0.02,0.27-0.04,0.4-0.05c-0.12,0.01-0.24,0.01-0.36-0.01
			c0.13,0.02,0.27,0.04,0.4,0.05c-0.19-0.03-0.37-0.07-0.55-0.14c0.12,0.05,0.24,0.1,0.36,0.15c-0.14-0.06-0.27-0.13-0.4-0.21
			c-0.31-0.21-0.8-0.25-1.16-0.15c-0.35,0.1-0.72,0.36-0.9,0.69c-0.18,0.35-0.28,0.77-0.15,1.16c0.12,0.38,0.35,0.67,0.69,0.9
			c0.35,0.23,0.77,0.42,1.19,0.49c0.63,0.12,1.24,0.13,1.82-0.2c0.4-0.23,0.71-0.66,0.82-1.1c0.07-0.29,0.08-0.59,0.07-0.89
			c0-0.17-0.01-0.35-0.02-0.52c-0.01-0.08-0.01-0.16-0.02-0.24c-0.04-0.36-0.08-0.56-0.23-0.88c-0.29-0.6-0.9-0.87-1.49-1.06
			c-0.33-0.11-0.67-0.2-1.02-0.26c-0.45-0.08-0.92-0.14-1.38-0.12c-0.64,0.03-1.3,0.13-1.76,0.61c-0.3,0.31-0.47,0.72-0.48,1.15
			c-0.01,0.2,0.03,0.4,0.06,0.59c0.03,0.17,0.05,0.33,0.09,0.5c0.13,0.55,0.4,1.03,0.77,1.46c0.24,0.28,0.7,0.44,1.06,0.44
			c0.37,0,0.81-0.16,1.06-0.44c0.26-0.29,0.46-0.66,0.44-1.06C619.55,259.75,619.41,259.41,619.13,259.1L619.13,259.1z"/>
	</g>
</g>
<g>
	<g>
		<path class="st1" d="M616.6,260.36c0.09,0.2,0.25,0.38,0.39,0.54c0.14,0.17,0.33,0.3,0.5,0.43c0.08,0.06,0.16,0.11,0.25,0.15
			c0.2,0.09,0.41,0.19,0.63,0.23c0.2,0.06,0.4,0.07,0.6,0.03c0.2-0.01,0.39-0.07,0.56-0.18c0.17-0.09,0.32-0.22,0.42-0.39
			c0.13-0.14,0.22-0.31,0.27-0.51c0.02-0.13,0.04-0.27,0.05-0.4c0-0.27-0.07-0.52-0.2-0.76c-0.08-0.1-0.16-0.2-0.23-0.3
			c-0.19-0.19-0.41-0.31-0.66-0.39c-0.09-0.01-0.18-0.04-0.26-0.07c0.12,0.05,0.24,0.1,0.36,0.15c-0.1-0.04-0.18-0.09-0.27-0.16
			c0.1,0.08,0.2,0.16,0.3,0.23c-0.08-0.06-0.15-0.14-0.22-0.22c0.08,0.1,0.16,0.2,0.23,0.3c-0.05-0.07-0.09-0.13-0.13-0.21
			c-0.09-0.17-0.22-0.32-0.39-0.42c-0.14-0.13-0.31-0.22-0.51-0.27c-0.2-0.06-0.4-0.07-0.6-0.03c-0.2,0.01-0.39,0.07-0.56,0.18
			c-0.1,0.08-0.2,0.16-0.3,0.23c-0.19,0.19-0.31,0.41-0.39,0.66c-0.02,0.13-0.04,0.27-0.05,0.4
			C616.4,259.88,616.47,260.13,616.6,260.36L616.6,260.36z"/>
	</g>
</g>
<g>
	<g>
		<path class="st1" d="M618.16,262.23c0.63,0.2,1.39,0.2,2.02-0.02c0.36-0.13,0.71-0.34,0.9-0.69c0.16-0.3,0.22-0.62,0.18-0.96
			c-0.04-0.31-0.17-0.64-0.41-0.86c-0.28-0.26-0.67-0.47-1.06-0.44c-0.09,0.01-0.18,0.01-0.28-0.01c0.13,0.02,0.27,0.04,0.4,0.05
			c-0.14-0.02-0.28-0.07-0.42-0.12c0.12,0.05,0.24,0.1,0.36,0.15c-0.23-0.1-0.45-0.24-0.68-0.36c-0.33-0.18-0.68-0.31-1.03-0.43
			c0.12,0.05,0.24,0.1,0.36,0.15c-0.03-0.01-0.05-0.02-0.07-0.04c0.1,0.08,0.2,0.16,0.3,0.23c-0.02-0.02-0.04-0.04-0.06-0.06
			c0.08,0.1,0.16,0.2,0.23,0.3c-0.05-0.07-0.09-0.15-0.13-0.24c0.05,0.12,0.1,0.24,0.15,0.36c-0.1-0.25-0.17-0.5-0.21-0.77
			c0.02,0.13,0.04,0.27,0.05,0.4c-0.02-0.17-0.03-0.36-0.02-0.53c-0.02,0.13-0.04,0.27-0.05,0.4c0-0.01,0.01-0.02,0.01-0.03
			c-0.13,0.22-0.26,0.44-0.39,0.66c0.01-0.01,0.01-0.01,0.02-0.02c-0.1,0.08-0.2,0.16-0.3,0.23c0.01,0,0.02-0.01,0.03-0.01
			c-0.12,0.05-0.24,0.1-0.36,0.15c0.01,0,0.02,0,0.03-0.01c-0.13,0.02-0.27,0.04-0.4,0.05c0.88-0.11,1.77-0.11,2.65-0.09
			c0.38,0.01,0.79-0.17,1.06-0.44c0.26-0.26,0.46-0.69,0.44-1.06c-0.02-0.39-0.14-0.79-0.44-1.06c-0.3-0.27-0.65-0.43-1.06-0.44
			c-0.5-0.01-1,0-1.5,0.02c-0.25,0.01-0.5,0.02-0.75,0.04c-0.12,0.01-0.23,0.02-0.35,0.03c-0.16,0.02-0.33,0.02-0.49,0.07
			c-0.26,0.08-0.51,0.22-0.7,0.41c-0.41,0.41-0.51,0.98-0.45,1.54c0.03,0.34,0.08,0.7,0.19,1.03c0.13,0.41,0.3,0.86,0.63,1.16
			c0.25,0.23,0.52,0.38,0.85,0.48c0.09,0.03,0.18,0.06,0.27,0.1c-0.12-0.05-0.24-0.1-0.36-0.15c0.3,0.13,0.57,0.31,0.87,0.46
			c0.49,0.24,1.03,0.44,1.58,0.39c-0.13-0.98-0.27-1.96-0.4-2.95c-0.12,0.04-0.24,0.07-0.37,0.1c0.13-0.02,0.27-0.04,0.4-0.05
			c-0.18,0.02-0.35,0.02-0.53,0c0.13,0.02,0.27,0.04,0.4,0.05c-0.11-0.02-0.22-0.04-0.33-0.08c-0.36-0.12-0.83-0.04-1.16,0.15
			c-0.31,0.18-0.61,0.54-0.69,0.9c-0.09,0.38-0.07,0.82,0.15,1.16C617.48,261.87,617.77,262.1,618.16,262.23L618.16,262.23z"/>
	</g>
</g>
<g>
	<g>
		<path d="M641.15,32.13h20.5c13.17,0,22.86,4.04,22.86,15.8c0,6.04-3.29,11.92-8.9,13.88v0.39c7.1,1.61,12.31,6.55,12.31,15.21
			c0,12.82-10.51,18.82-24.62,18.82h-22.15V32.13z M660.64,58.59c8.94,0,12.74-3.49,12.74-9.06c0-6.19-4.19-8.55-12.51-8.55h-8.35
			v17.6H660.64z M662.13,87.37c9.41,0,14.66-3.37,14.66-10.58c0-6.74-5.1-9.68-14.66-9.68h-9.6v20.27H662.13z"/>
		<path d="M695.5,72.19c0-15.64,10.86-25.29,22.19-25.29c13.02,0,19.88,9.41,19.88,22.86c0,2.16-0.24,4.31-0.49,5.49h-30.56
			c0.94,8.55,6.43,13.41,14.19,13.41c4.12,0,7.64-1.29,11.17-3.49l3.84,7.02c-4.59,3.1-10.39,5.21-16.5,5.21
			C705.93,97.4,695.5,88.07,695.5,72.19z M727.81,67.57c0-7.41-3.29-11.92-9.88-11.92c-5.61,0-10.55,4.19-11.53,11.92H727.81z"/>
		<path d="M748.36,26.99h11.29v17.92l-0.47,9.29c4.04-3.8,8.82-7.29,15.41-7.29c10.31,0,14.82,6.98,14.82,19.13v30.19h-11.29V67.49
			c0-7.92-2.27-10.9-7.49-10.9c-4.23,0-7.02,2.08-10.98,6v33.64h-11.29V26.99z"/>
		<path d="M800.46,83.29c0-10.31,8.55-15.68,28.3-17.8c-0.16-5.17-2.23-9.49-8.74-9.49c-4.78,0-9.29,2.16-13.52,4.74l-4.16-7.53
			c5.29-3.33,12.11-6.31,19.76-6.31c12.04,0,17.96,7.41,17.96,20.82v28.5h-9.25l-0.86-5.33h-0.31c-4.31,3.69-9.25,6.51-14.94,6.51
			C806.26,97.4,800.46,91.68,800.46,83.29z M828.76,83.33V72.51c-13.05,1.65-17.41,5.06-17.41,9.92c0,4.25,2.9,6.12,6.94,6.12
			C822.22,88.54,825.2,86.62,828.76,83.33z"/>
		<path d="M847.62,48.08h11.45l7.64,24.97c1.33,4.74,2.74,9.68,4.08,14.5h0.39c1.33-4.82,2.74-9.76,4.08-14.5l7.64-24.97h10.9
			l-16.35,48.14H864.4L847.62,48.08z"/>
		<path d="M900.83,33.27c0-3.8,2.98-6.39,6.98-6.39c4,0,6.98,2.59,6.98,6.39c0,3.72-2.98,6.39-6.98,6.39
			C903.81,39.66,900.83,36.99,900.83,33.27z M902.13,48.08h11.29v48.14h-11.29V48.08z"/>
		<path d="M924.62,72.19c0-16.03,10.9-25.29,22.89-25.29s22.89,9.25,22.89,25.29c0,15.96-10.9,25.21-22.89,25.21
			S924.62,88.15,924.62,72.19z M958.81,72.19c0-9.64-4.23-16.07-11.29-16.07c-7.06,0-11.29,6.43-11.29,16.07
			c0,9.64,4.23,15.99,11.29,15.99C954.58,88.19,958.81,81.84,958.81,72.19z"/>
		<path d="M981.6,48.08h9.25l0.86,8.59h0.31c3.43-6.27,8.53-9.76,13.68-9.76c2.45,0,4,0.31,5.45,0.98l-1.96,9.8
			c-1.69-0.47-2.94-0.78-4.94-0.78c-3.84,0-8.47,2.63-11.37,9.96v29.36H981.6V48.08z"/>
		<path d="M1015.21,72.19c0-15.68,10.08-25.29,20.62-25.29c5.1,0,9.02,1.92,13.05,5.92h0.31l0.9-4.74h8.98v48.14h-9.25l-0.86-5.21
			h-0.31c-3.57,3.57-8.51,6.39-13.68,6.39C1022.98,97.4,1015.21,88.07,1015.21,72.19z M1047.79,82.66V60.24c-3.29-2.94-6.55-4-9.8-4
			c-6.12,0-11.17,5.8-11.17,15.84c0,10.47,4,15.99,10.94,15.99C1041.48,88.07,1044.62,86.43,1047.79,82.66z"/>
		<path class="st2" d="M1074.41,32.13h11.37v54.53h26.62v9.57h-37.99V32.13z"/>
		<path class="st2" d="M1119.68,72.19c0-15.68,10.08-25.29,20.62-25.29c5.1,0,9.02,1.92,13.05,5.92h0.31l0.9-4.74h8.98v48.14h-9.25
			l-0.86-5.21h-0.31c-3.57,3.57-8.51,6.39-13.68,6.39C1127.44,97.4,1119.68,88.07,1119.68,72.19z M1152.26,82.66V60.24
			c-3.29-2.94-6.55-4-9.8-4c-6.12,0-11.17,5.8-11.17,15.84c0,10.47,4,15.99,10.94,15.99C1145.95,88.07,1149.08,86.43,1152.26,82.66z
			"/>
		<path class="st2" d="M1188.09,91.17h-0.31l-0.98,5.06h-8.9V26.99h11.29v17.92l-0.31,8c4.02-3.53,8.96-6,13.9-6
			c12.04,0,18.99,9.64,18.99,24.44c0,16.52-9.84,26.05-20.54,26.05C1196.83,97.4,1192.12,95.17,1188.09,91.17z M1210.16,71.53
			c0-9.6-3.14-15.29-10.47-15.29c-3.49,0-6.86,1.76-10.51,5.41v22.42c3.37,2.94,6.86,4,9.64,4
			C1205.26,88.07,1210.16,82.43,1210.16,71.53z"/>
		<path class="st2" d="M1228.28,90.7l5.25-7.17c4.27,3.33,8.41,5.37,13.29,5.37c5.25,0,7.72-2.47,7.72-5.76
			c0-4.04-5.21-5.84-10.35-7.8c-6.31-2.37-13.52-6-13.52-14.03c0-8.35,6.74-14.39,17.52-14.39c6.7,0,12.07,2.72,15.99,5.76
			l-5.17,6.94c-3.37-2.47-6.76-4.19-10.54-4.19c-4.84,0-7.13,2.31-7.13,5.33c0,3.8,4.86,5.25,10.08,7.17
			c6.51,2.43,13.8,5.57,13.8,14.54c0,8.27-6.55,14.94-18.7,14.94C1239.93,97.4,1232.99,94.58,1228.28,90.7z"/>
	</g>
</g>
<path class="st0" d="M649.49,202.07L649.49,202.07c-7.35,3.93-16.23,3.63-23.31-0.77l0,0c-7.07-4.4-11.26-12.24-10.99-20.57v0
	c0.27-8.33,4.97-15.87,12.32-19.8v0c7.35-3.93,16.23-3.63,23.31,0.77v0c7.07,4.4,11.26,12.24,10.99,20.57v0
	C661.53,190.59,656.84,198.14,649.49,202.07z"/>
<path class="st2" d="M1133.71,71.17c-0.9,3.83-0.26,8.71,3.58,12.83c5.21,5.57,13.9,0.48,13.44-10c-0.02-0.52,0.04-5.23-1-6.09
	c-3.92-3.26-4.07,2.7-8.86,5.09C1139.57,73.65,1135.5,74,1133.71,71.17"/>
<g>
	<g>
		<path class="st1" d="M1142.05,61.1c0.2-9.72,0.19-19.45-0.04-29.17c-0.11-4.82-7.61-4.84-7.5,0c0.22,9.72,0.24,19.45,0.04,29.17
			C1134.45,65.93,1141.95,65.93,1142.05,61.1L1142.05,61.1z"/>
	</g>
</g>
<circle class="st2" cx="1138" cy="44" r="3"/>
<circle class="st3" cx="1132.5" cy="37.5" r="2.5"/>
<path class="st4" d="M1125.5,102.5"/>
<circle class="st2" cx="1138" cy="32" r="2"/>
<circle class="st3" cx="1135.5" cy="25.5" r="2.5"/>
<path class="st3" d="M1134,78c0.53-5.32,2.8-9.33,5.5-9.92c3.13-0.69,5.3,3.56,5.5,3.97"/>
</svg>
